<?xml version="1.0" encoding="iso-8859-1"?>
<!-- Generator: Adobe Illustrator 19.0.0, SVG Export Plug-In . SVG Version: 6.00 Build 0)  -->
<svg version="1.1" id="Layer_1" xmlns="http://www.w3.org/2000/svg" xmlns:xlink="http://www.w3.org/1999/xlink" x="0px" y="0px"
	 viewBox="0 0 512.087 512.087" style="enable-background:new 0 0 512.087 512.087;" xml:space="preserve">
<g transform="translate(-1)">
	<g>
		<g>
			<path d="M508.774,419.294c-11.221-6.391-40.909-26.402-74.027-74.24c-15.718-22.69-38.076-38.195-66.432-46.345h33.809
				c4.719,0,8.533-3.823,8.533-8.533c0-4.71-3.814-8.533-8.533-8.533h-43.093c-1.886-26.513-12.416-50.637-28.851-69.581
				l18.423-18.432c3.337-3.328,3.337-8.73,0-12.066c-3.328-3.337-8.73-3.337-12.066,0l-18.423,18.432
				c-18.953-16.435-43.068-26.965-69.589-28.851v-43.102c0-4.71-3.814-8.533-8.533-8.533c-4.71,0-8.533,3.823-8.533,8.533v43.102
				c-26.513,1.886-50.628,12.416-69.581,28.851l-18.432-18.432c-3.328-3.337-8.73-3.337-12.066,0c-3.328,3.337-3.328,8.738,0,12.066
				l18.432,18.432c-16.435,18.944-26.965,43.068-28.851,69.581H77.857c-4.71,0-8.533,3.823-8.533,8.533
				c0,4.71,3.823,8.533,8.533,8.533h43.085c0.666,9.054,2.364,18.005,5.129,26.786c-18.944,5.854-37.154,15.198-53.683,27.913
				l-1.237,0.956C43.332,375.766,21.35,392.67,5.162,402.313c-4.045,2.406-5.367,7.646-2.961,11.699
				c1.596,2.679,4.429,4.164,7.339,4.164c1.485,0,2.987-0.384,4.361-1.195c17.05-10.163,39.39-27.341,67.661-49.092l1.237-0.956
				c17.212-13.244,36.429-22.409,56.303-27.324c0.026-0.009,0.051,0,0.077-0.009c10.641-2.628,21.274-4.019,31.812-4.181h0.017
				c4.821-0.068,9.617,0.188,14.396,0.631c0.461,0.043,0.93,0.017,1.391,0.068c5.205,0.538,10.385,1.382,15.522,2.534
				c2.338,0.521,4.565,1.203,6.827,1.843c-71.023,52.489-91.511,52.864-93.969,52.693c-3.678-1.468-8.004-0.23-10.283,3.183
				c-2.611,3.925-1.553,9.225,2.372,11.836c8.311,5.547,35.712,4.301,124.971-63.727c0.034-0.034,0.085-0.034,0.12-0.068
				l4.045-3.081c4.215-3.243,8.567-6.212,13.005-8.969c2.654-1.647,5.41-3.063,8.141-4.531c1.775-0.956,3.507-2.014,5.299-2.893
				c3.413-1.673,6.903-3.106,10.402-4.506c1.178-0.469,2.33-1.015,3.507-1.451c3.669-1.365,7.39-2.492,11.119-3.55
				c1.101-0.316,2.193-0.683,3.302-0.973c3.618-0.93,7.262-1.647,10.923-2.295c1.331-0.239,2.654-0.521,3.985-0.717
				c3.371-0.503,6.75-0.802,10.129-1.067c1.724-0.128,3.456-0.282,5.188-0.341c3.004-0.12,6.007-0.068,9.003,0.008
				c2.167,0.068,4.326,0.137,6.485,0.307c2.654,0.196,5.299,0.512,7.936,0.87c3.712,0.512,7.424,0.998,11.093,1.818
				c28.22,6.34,50.022,20.378,64.794,41.719c35.115,50.731,67.379,72.397,79.625,79.36c1.331,0.759,2.782,1.118,4.207,1.118
				c2.978,0,5.854-1.553,7.433-4.309C514.295,426.829,512.87,421.624,508.774,419.294z"/>
			<path d="M436.261,298.71h8.533c4.71,0,8.533-3.823,8.533-8.533c0-4.71-3.823-8.533-8.533-8.533h-8.533
				c-4.71,0-8.533,3.823-8.533,8.533C427.728,294.887,431.55,298.71,436.261,298.71z"/>
			<path d="M35.194,298.71h8.533c4.71,0,8.533-3.823,8.533-8.533c0-4.71-3.823-8.533-8.533-8.533h-8.533
				c-4.71,0-8.533,3.823-8.533,8.533C26.661,294.887,30.484,298.71,35.194,298.71z"/>
			<path d="M367.994,170.71c2.185,0,4.369-0.836,6.033-2.5l17.067-17.067c3.337-3.337,3.337-8.73,0-12.066
				c-3.336-3.336-8.73-3.336-12.066,0l-17.067,17.067c-3.336,3.336-3.336,8.73,0,12.066
				C363.625,169.874,365.81,170.71,367.994,170.71z"/>
			<path d="M105.961,168.21c1.664,1.664,3.849,2.5,6.033,2.5c2.185,0,4.369-0.836,6.033-2.5c3.336-3.337,3.336-8.73,0-12.066
				l-17.067-17.067c-3.336-3.336-8.73-3.336-12.066,0c-3.337,3.337-3.337,8.73,0,12.066L105.961,168.21z"/>
			<path d="M239.994,102.444c4.71,0,8.533-3.823,8.533-8.533v-8.533c0-4.71-3.823-8.533-8.533-8.533s-8.533,3.823-8.533,8.533v8.533
				C231.461,98.621,235.284,102.444,239.994,102.444z"/>
			<path d="M333.861,324.31h-17.067c-4.71,0-8.533,3.823-8.533,8.533s3.823,8.533,8.533,8.533h17.067
				c4.71,0,8.533-3.823,8.533-8.533S338.571,324.31,333.861,324.31z"/>
			<path d="M291.194,349.91h-17.067c-4.71,0-8.533,3.823-8.533,8.533s3.823,8.533,8.533,8.533h17.067
				c4.71,0,8.533-3.823,8.533-8.533S295.905,349.91,291.194,349.91z"/>
			<path d="M376.528,349.91h-17.067c-4.71,0-8.533,3.823-8.533,8.533s3.823,8.533,8.533,8.533h17.067
				c4.71,0,8.533-3.823,8.533-8.533S381.238,349.91,376.528,349.91z"/>
			<path d="M419.194,375.51h-17.067c-4.71,0-8.533,3.823-8.533,8.533s3.823,8.533,8.533,8.533h17.067
				c4.71,0,8.533-3.823,8.533-8.533S423.905,375.51,419.194,375.51z"/>
			<path d="M333.861,375.51h-17.067c-4.71,0-8.533,3.823-8.533,8.533s3.823,8.533,8.533,8.533h17.067
				c4.71,0,8.533-3.823,8.533-8.533S338.571,375.51,333.861,375.51z"/>
			<path d="M248.528,375.51h-17.067c-4.71,0-8.533,3.823-8.533,8.533s3.823,8.533,8.533,8.533h17.067
				c4.71,0,8.533-3.823,8.533-8.533S253.238,375.51,248.528,375.51z"/>
		</g>
	</g>
</g>
<g>
</g>
<g>
</g>
<g>
</g>
<g>
</g>
<g>
</g>
<g>
</g>
<g>
</g>
<g>
</g>
<g>
</g>
<g>
</g>
<g>
</g>
<g>
</g>
<g>
</g>
<g>
</g>
<g>
</g>
</svg>
